<svg width="96" height="96" viewBox="0 0 96 96" fill="none" xmlns="http://www.w3.org/2000/svg">
<path d="M88 48H78.08C76.3319 47.9963 74.6306 48.5652 73.2365 49.6199C71.8423 50.6745 70.832 52.1568 70.36 53.84L60.96 87.28C60.8994 87.4877 60.7731 87.6702 60.6 87.8C60.4269 87.9298 60.2164 88 60 88C59.7836 88 59.5731 87.9298 59.4 87.8C59.2269 87.6702 59.1006 87.4877 59.04 87.28L36.96 8.72C36.8994 8.51228 36.7731 8.32982 36.6 8.2C36.4269 8.07018 36.2164 8 36 8C35.7836 8 35.5731 8.07018 35.4 8.2C35.2269 8.32982 35.1006 8.51228 35.04 8.72L25.64 42.16C25.1699 43.8366 24.1655 45.3141 22.7795 46.3681C21.3934 47.422 19.7013 47.995 17.96 48H8" stroke="white" stroke-opacity="0.3" stroke-width="8" stroke-linecap="round" stroke-linejoin="round"/>
</svg>
